# xmcd
#
# Track frame offsets:
#	150
#	14398
#	33522
#	49980
#	68736
#	84769
#	99967
#	113941
#	130783
#	148493
#	163773
#	179619
#
# Disc length: 2599 seconds
#
# Revision: 1
# Processed by: cddbd v1.5.2PL0 Copyright (c) Steve Scherf et al.
# Submitted via: audiograbber 1.83.01
#
DISCID=a40a250c
DTITLE=Billy Currington - Summer Forever
DYEAR=2015
DGENRE=Country
TTITLE0=Don't It
TTITLE1=Drinkin' Town With a Football Problem
TTITLE2=Wake Me Up
TTITLE3=Good Night
TTITLE4=Jonesin'
TTITLE5=Give It to Me Straight
TTITLE6=It Don't Hurt Like It Used To
TTITLE7=Nowhere Town
TTITLE8=Do I Make You Wanna
TTITLE9=Sweet Love
TTITLE10=Soundtrack
TTITLE11=Summer Forever
EXTD=
EXTT0=
EXTT1=
EXTT2=
EXTT3=
EXTT4=
EXTT5=
EXTT6=
EXTT7=
EXTT8=
EXTT9=
EXTT10=
EXTT11=
PLAYORDER=
